{"asset":{"version":"2.0","generator":"VR Museum MVP seed"},"scene":0,"scenes":[{"nodes":[0]}],"nodes":[{"name":"mvp-gallery-room","mesh":0}],"meshes":[{"name":"mvp-gallery-room","primitives":[{"attributes":{"POSITION":0,"NORMAL":1,"TEXCOORD_0":2},"indices":3,"material":2},{"attributes":{"POSITION":0,"NORMAL":1,"TEXCOORD_0":2},"indices":4,"material":3},{"attributes":{"POSITION":0,"NORMAL":1,"TEXCOORD_0":2},"indices":5,"material":0},{"attributes":{"POSITION":0,"NORMAL":1,"TEXCOORD_0":2},"indices":6,"material":1},{"attributes":{"POSITION":0,"NORMAL":1,"TEXCOORD_0":2},"indices":7,"material":0},{"attributes":{"POSITION":0,"NORMAL":1,"TEXCOORD_0":2},"indices":8,"material":0}]}],"materials":[{"name":"Warm wall","pbrMetallicRoughness":{"baseColorFactor":[0.72,0.68,0.58,1],"roughnessFactor":0.95},"doubleSided":true},{"name":"Dark accent wall","pbrMetallicRoughness":{"baseColorFactor":[0.08,0.06,0.045,1],"roughnessFactor":0.9},"doubleSided":true},{"name":"Stone floor","pbrMetallicRoughness":{"baseColorFactor":[0.68,0.64,0.56,1],"roughnessFactor":0.95},"doubleSided":true},{"name":"Ceiling","pbrMetallicRoughness":{"baseColorFactor":[0.82,0.79,0.7,1],"roughnessFactor":0.95},"doubleSided":true}],"buffers":[{"uri":"data:application/octet-stream;base64,","byteLength":840}],"bufferViews":[{"buffer":0,"byteOffset":0,"byteLength":288,"target":34962},{"buffer":0,"byteOffset":288,"byteLength":288,"target":34962},{"buffer":0,"byteOffset":576,"byteLength":192,"target":34962},{"buffer":0,"byteOffset":768,"byteLength":12,"target":34963},{"buffer":0,"byteOffset":780,"byteLength":12,"target":34963},{"buffer":0,"byteOffset":792,"byteLength":12,"target":34963},{"buffer":0,"byteOffset":804,"byteLength":12,"target":34963},{"buffer":0,"byteOffset":816,"byteLength":12,"target":34963},{"buffer":0,"byteOffset":828,"byteLength":12,"target":34963}],"accessors":[{"bufferView":0,"componentType":5126,"count":24,"type":"VEC3","min":[-6.0,0.0,-8.0],"max":[6.0,4.0,8.0]},{"bufferView":1,"componentType":5126,"count":24,"type":"VEC3"},{"bufferView":2,"componentType":5126,"count":24,"type":"VEC2"},{"bufferView":3,"componentType":5123,"count":6,"type":"SCALAR","min":[0],"max":[3]},{"bufferView":4,"componentType":5123,"count":6,"type":"SCALAR","min":[4],"max":[7]},{"bufferView":5,"componentType":5123,"count":6,"type":"SCALAR","min":[8],"max":[11]},{"bufferView":6,"componentType":5123,"count":6,"type":"SCALAR","min":[12],"max":[15]},{"bufferView":7,"componentType":5123,"count":6,"type":"SCALAR","min":[16],"max":[19]},{"bufferView":8,"componentType":5123,"count":6,"type":"SCALAR","min":[20],"max":[23]}]}